<svg width="204" height="204" viewBox="0 0 204 204" fill="none" xmlns="http://www.w3.org/2000/svg">
<circle cx="102" cy="102" r="80" stroke="#3870FF" stroke-width="4"/>
<path d="M91.6406 102.516L84.7031 100.734L88.125 66.75H123.141V74.7656H95.4844L93.4219 93.3281C94.6719 92.6094 96.25 91.9375 98.1562 91.3125C100.094 90.6875 102.312 90.375 104.812 90.375C107.969 90.375 110.797 90.9219 113.297 92.0156C115.797 93.0781 117.922 94.6094 119.672 96.6094C121.453 98.6094 122.812 101.016 123.75 103.828C124.688 106.641 125.156 109.781 125.156 113.25C125.156 116.531 124.703 119.547 123.797 122.297C122.922 125.047 121.594 127.453 119.812 129.516C118.031 131.547 115.781 133.125 113.062 134.25C110.375 135.375 107.203 135.938 103.547 135.938C100.797 135.938 98.1875 135.562 95.7188 134.812C93.2812 134.031 91.0938 132.859 89.1562 131.297C87.25 129.703 85.6875 127.734 84.4688 125.391C83.2812 123.016 82.5312 120.234 82.2188 117.047H90.4688C90.8438 119.609 91.5938 121.766 92.7188 123.516C93.8438 125.266 95.3125 126.594 97.125 127.5C98.9688 128.375 101.109 128.812 103.547 128.812C105.609 128.812 107.438 128.453 109.031 127.734C110.625 127.016 111.969 125.984 113.062 124.641C114.156 123.297 114.984 121.672 115.547 119.766C116.141 117.859 116.438 115.719 116.438 113.344C116.438 111.188 116.141 109.188 115.547 107.344C114.953 105.5 114.062 103.891 112.875 102.516C111.719 101.141 110.297 100.078 108.609 99.3281C106.922 98.5469 104.984 98.1562 102.797 98.1562C99.8906 98.1562 97.6875 98.5469 96.1875 99.3281C94.7188 100.109 93.2031 101.172 91.6406 102.516Z" fill="#3870FF"/>
</svg>
