<svg width="38" height="38" viewBox="0 0 38 38" fill="none" xmlns="http://www.w3.org/2000/svg">
<path d="M5.61675 5.74176C9.13305 2.22545 13.9022 0.25 18.875 0.25C23.8478 0.25 28.6169 2.22545 32.1333 5.74176C35.6496 9.25807 37.625 14.0272 37.625 19C37.625 23.9729 35.6496 28.742 32.1333 32.2583C28.6301 35.7615 23.8834 37.7353 18.9306 37.75C19.7747 37.7467 20.5991 37.6687 21.4132 37.5587V23.9698H26.2655L27.0273 19.0405H21.4122V16.3464C21.4122 14.2987 22.0813 12.4829 23.9967 12.4829H27.0747V8.18129L27.0456 8.17737C26.4934 8.1027 25.3522 7.9484 23.229 7.9484C18.7161 7.9484 16.0704 10.3316 16.0704 15.7612V19.0405H11.4313V23.9698H16.0704V37.5182C16.9702 37.6535 17.8814 37.7462 18.816 37.75C13.8645 37.7344 9.11914 35.7607 5.61675 32.2583C2.10044 28.742 0.125 23.9729 0.125 19C0.125 14.0272 2.10044 9.25807 5.61675 5.74176Z" fill="#4267B2"/>
</svg>
