<svg width="41" height="40" viewBox="0 0 41 40" fill="none" xmlns="http://www.w3.org/2000/svg">
<path d="M40.3298 16.083H38.7188V16H20.7188V24H32.0218C30.3728 28.657 25.9417 32 20.7188 32C14.0918 32 8.71875 26.627 8.71875 20C8.71875 13.373 14.0918 8 20.7188 8C23.7778 8 26.5608 9.154 28.6798 11.039L34.3368 5.382C30.7647 2.053 25.9867 0 20.7188 0C9.67375 0 0.71875 8.955 0.71875 20C0.71875 31.045 9.67375 40 20.7188 40C31.7638 40 40.7188 31.045 40.7188 20C40.7188 18.659 40.5807 17.35 40.3298 16.083Z" fill="#FFC107"/>
<path d="M3.02475 10.691L9.59575 15.51C11.3737 11.108 15.6798 8 20.7188 8C23.7778 8 26.5608 9.154 28.6798 11.039L34.3368 5.382C30.7647 2.053 25.9867 0 20.7188 0C13.0367 0 6.37475 4.337 3.02475 10.691Z" fill="#FF3D00"/>
<path d="M20.7188 40C25.8848 40 30.5788 38.023 34.1278 34.808L27.9377 29.57C25.9298 31.091 23.4338 32 20.7188 32C15.5168 32 11.0998 28.683 9.43575 24.054L2.91375 29.079C6.22375 35.556 12.9458 40 20.7188 40Z" fill="#4CAF50"/>
<path d="M40.3298 16.083H38.7188V16H20.7188V24H32.0218C31.2298 26.237 29.7907 28.166 27.9347 29.571C27.9357 29.57 27.9368 29.571 27.9377 29.57L34.1278 34.808C33.6898 35.206 40.7188 30 40.7188 20C40.7188 18.659 40.5807 17.35 40.3298 16.083Z" fill="#1976D2"/>
</svg>
