<svg width="34" height="27" viewBox="0 0 34 27" fill="none" xmlns="http://www.w3.org/2000/svg">
<path d="M33.125 3.35384C31.9307 3.88427 30.6462 4.23819 29.2912 4.40565C30.6687 3.58556 31.7285 2.27759 32.2259 0.732457C30.9368 1.49009 29.5088 2.04677 27.9895 2.34004C26.7763 1.05017 25.0458 0.25 23.1285 0.25C19.4454 0.25 16.4602 3.21715 16.4602 6.87586C16.4602 7.39362 16.5207 7.8978 16.6344 8.3875C11.0936 8.10871 6.17933 5.46741 2.89169 1.45931C2.31396 2.43871 1.98898 3.58556 1.98898 4.79578C1.98898 7.09582 3.1634 9.12069 4.95436 10.3137C3.86119 10.2802 2.83211 9.97517 1.93121 9.48638C1.93121 9.50629 1.93121 9.53616 1.93121 9.56423C1.93121 12.7785 4.23039 15.4551 7.27792 16.0643C6.72095 16.2172 6.13239 16.3023 5.52577 16.3023C5.09518 16.3023 4.67543 16.2534 4.26921 16.1801C5.11775 18.8069 7.57942 20.7268 10.4961 20.7838C8.21402 22.558 5.33982 23.6206 2.21466 23.6206C1.67484 23.6206 1.14676 23.5899 0.625 23.5265C3.57774 25.4011 7.08384 26.5 10.8472 26.5C23.1104 26.5 29.8193 16.4019 29.8193 7.64164C29.8193 7.3547 29.8103 7.06866 29.7967 6.78625C31.1057 5.85935 32.234 4.68987 33.125 3.35384Z" fill="#03A9F4"/>
</svg>
